<svg width="18" height="18" viewBox="0 0 18 18" fill="none" xmlns="http://www.w3.org/2000/svg">
<path fill-rule="evenodd" clip-rule="evenodd" d="M7.56196 14.9141H4.3907V5.4003H12.8474V7.51447H13.9045V4.87176L13.3759 4.34322H11.7903V3.28613H10.7332C10.7309 2.72632 10.5066 2.1903 10.1095 1.79564C9.71342 1.40187 9.17758 1.18085 8.61905 1.18085C8.06051 1.18085 7.52467 1.40187 7.12856 1.79564C6.73153 2.1903 6.50724 2.72632 6.50487 3.28613H5.38436V4.34322H3.86216L3.33362 4.87176V15.4426L3.86216 15.9712H7.56196V14.9141ZM7.56196 3.07471C7.60105 2.86485 7.70276 2.67174 7.8537 2.52079C8.00465 2.36984 8.19776 2.26813 8.40763 2.22905C8.61376 2.18881 8.82721 2.21089 9.02074 2.29247C9.21523 2.36639 9.38162 2.4995 9.49643 2.67302C9.63491 2.87655 9.69802 3.12204 9.67487 3.36712C9.65171 3.61221 9.54374 3.84153 9.36958 4.01552C9.19559 4.18968 8.96627 4.29765 8.72118 4.32081C8.47609 4.34397 8.23061 4.28086 8.02708 4.14237C7.85355 4.02756 7.72045 3.86118 7.64653 3.66668C7.56195 3.48161 7.53259 3.27606 7.56196 3.07471ZM15.0461 13.0748L13.9044 14.227V8.57157H12.8473V14.2164L11.7057 13.0748L10.9552 13.8253L13.0059 15.8655H13.7564L15.7966 13.8253L15.0461 13.0748ZM8.78814 8.67725H9.53867L11.5788 10.7174L10.8283 11.468L9.68666 10.3263V15.9711H8.62958V10.3157L7.48793 11.468L6.73739 10.7174L8.78814 8.67725Z" fill="#C5C5C5"/>
</svg>
