<svg width="32" height="32" viewBox="0 0 50 50" fill="none" xmlns="http://www.w3.org/2000/svg">
  <path opacity="0.7" d="M38.109 14.3v3.204l-0.005 18.971H32.957V16.166l1.613 -1.643a0.697 0.697 0 0 1 0.536 -0.223h3.002Z" fill="#d7dae0"/>
  <path opacity="0.7" fill-rule="evenodd" clip-rule="evenodd" d="M30.237 29.258c-0.363 -0.466 -0.725 -0.93 -1.081 -1.285a392.963 392.963 0 0 1 -1.963 -1.975l-0.977 -0.986v-2.282l0.001 -0.005a0.696 0.696 0 0 1 0.158 -0.462l4.989 -4.78V29.954l0.001 0.153c0.002 0.177 0.005 0.445 -0.001 0.484 -0.373 -0.366 -0.75 -0.85 -1.127 -1.334Z" fill="#d7dae0"/>
  <path d="M11.697 20.222V27.422L20.781 36.475h7.225L11.697 20.222Z" fill="#d7dae0"/>
  <path d="M11.697 36.475h6.677L11.697 29.822v6.653Z" fill="#d7dae0"/>
  <path d="M30.441 36.475h7.154L16.02 14.523a0.696 0.696 0 0 0 -0.536 -0.223h-3.78v3.201l18.738 18.974Z" fill="#d7dae0"/>
</svg>