<?xml version="1.0" encoding="UTF-8"?>
<svg xmlns="http://www.w3.org/2000/svg" xmlns:xlink="http://www.w3.org/1999/xlink" width="128px" height="128px" viewBox="0 0 128 128" version="1.1">
<defs>
<filter id="alpha" filterUnits="objectBoundingBox" x="0%" y="0%" width="100%" height="100%">
  <feColorMatrix type="matrix" in="SourceGraphic" values="0 0 0 0 1 0 0 0 0 1 0 0 0 0 1 0 0 0 1 0"/>
</filter>
<mask id="mask0">
  <g filter="url(#alpha)">
<rect x="0" y="0" width="128" height="128" style="fill:rgb(0%,0%,0%);fill-opacity:0.701961;stroke:none;"/>
  </g>
</mask>
<clipPath id="clip1">
  <rect x="0" y="0" width="128" height="128"/>
</clipPath>
<g id="surface5" clip-path="url(#clip1)">
<path style=" stroke:none;fill-rule:nonzero;fill:rgb(84.313725%,85.490196%,87.843137%);fill-opacity:1;" d="M 97.324219 36.519531 L 97.324219 44.703125 L 97.308594 93.148438 L 84.164062 93.148438 L 84.164062 41.285156 L 88.285156 37.089844 C 88.636719 36.710938 89.136719 36.5 89.652344 36.519531 Z M 97.324219 36.519531 "/>
</g>
<mask id="mask1">
  <g filter="url(#alpha)">
<rect x="0" y="0" width="128" height="128" style="fill:rgb(0%,0%,0%);fill-opacity:0.701961;stroke:none;"/>
  </g>
</mask>
<clipPath id="clip2">
  <rect x="0" y="0" width="128" height="128"/>
</clipPath>
<g id="surface8" clip-path="url(#clip2)">
<path style=" stroke:none;fill-rule:evenodd;fill:rgb(84.313725%,85.490196%,87.843137%);fill-opacity:1;" d="M 77.21875 74.71875 C 76.292969 73.527344 75.367188 72.34375 74.457031 71.4375 C 72.78125 69.761719 71.109375 68.082031 69.445312 66.394531 L 66.949219 63.875 L 66.949219 58.046875 L 66.953125 58.035156 C 66.941406 57.605469 67.085938 57.1875 67.355469 56.855469 L 80.097656 44.648438 L 80.097656 76.496094 L 80.101562 76.886719 C 80.105469 77.339844 80.113281 78.023438 80.097656 78.125 C 79.144531 77.1875 78.183594 75.953125 77.21875 74.714844 Z M 77.21875 74.71875 "/>
</g>
</defs>
<g id="surface1">
<path style="fill:none;stroke-width:1.5;stroke-linecap:round;stroke-linejoin:round;stroke:rgb(0%,0%,0%);stroke-opacity:1;stroke-miterlimit:4;" d="M 5.261703 5.664887 C 5.261703 4.810395 6.17723 4.261079 6.909652 4.657807 L 18.445297 11.005463 C 15.424057 14.820161 9.869857 15.430512 6.05516 12.409272 C 2.240463 9.357514 1.630111 3.803315 4.681869 -0.0113824 L -6.884293 6.336274 C -8.623795 6.610932 -10.271744 5.420746 -10.546402 3.681245 C -10.821061 1.911225 -9.600357 0.263276 -7.860855 -0.0113824 L -7.860855 5.664887 Z M 5.261703 5.664887 " transform="matrix(0.128,0,0,0.128,62.482752,63.005363)"/>
<path style="fill:none;stroke-width:1.5;stroke-linecap:round;stroke-linejoin:round;stroke:rgb(0%,0%,0%);stroke-opacity:1;stroke-miterlimit:4;" d="M 5.261703 5.664887 C 5.261703 4.810395 6.17723 4.261079 6.909652 4.657807 L 18.445297 11.005463 C 15.424057 14.820161 9.869857 15.430512 6.05516 12.409272 C 2.240463 9.357514 1.630111 3.803315 4.681869 -0.0113824 L -6.884293 6.336274 C -8.623795 6.610932 -10.271744 5.420746 -10.546402 3.681245 C -10.821061 1.911225 -9.600357 0.263276 -7.860855 -0.0113824 L -7.860855 5.664887 Z M 5.261703 5.664887 " transform="matrix(0.128,0,0,0.128,62.482752,63.005363)"/>
<use xlink:href="#surface5" mask="url(#mask0)"/>
<use xlink:href="#surface8" mask="url(#mask1)"/>
<path style=" stroke:none;fill-rule:nonzero;fill:rgb(84.313725%,85.490196%,87.843137%);fill-opacity:1;" d="M 29.871094 51.644531 L 29.871094 70.03125 L 53.070312 93.148438 L 71.523438 93.148438 Z M 29.871094 51.644531 "/>
<path style=" stroke:none;fill-rule:nonzero;fill:rgb(84.313725%,85.490196%,87.843137%);fill-opacity:1;" d="M 29.871094 93.148438 L 46.921875 93.148438 L 29.871094 76.160156 Z M 29.871094 93.148438 "/>
<path style=" stroke:none;fill-rule:nonzero;fill:rgb(84.313725%,85.490196%,87.843137%);fill-opacity:1;" d="M 77.742188 93.148438 L 96.011719 93.148438 L 40.910156 37.089844 C 40.558594 36.707031 40.0625 36.5 39.542969 36.519531 L 29.890625 36.519531 L 29.890625 44.695312 Z M 77.742188 93.148438 "/>
<path style=" stroke:none;fill-rule:nonzero;fill:rgb(0%,57.254902%,27.058824%);fill-opacity:1;" d="M 126.117188 98.914062 L 88.875 76.75 C 88.421875 76.480469 87.953125 76.320312 87.417969 76.320312 C 85.957031 76.320312 84.769531 77.523438 84.769531 78.996094 L 84.753906 78.996094 L 84.753906 125.011719 L 84.769531 125.011719 C 84.769531 126.484375 85.957031 127.6875 87.417969 127.6875 C 87.964844 127.6875 88.421875 127.5 88.914062 127.234375 L 126.117188 105.09375 C 127 104.359375 127.5625 103.25 127.5625 102.003906 C 127.5625 100.761719 127 99.664062 126.117188 98.914062 Z M 126.117188 98.914062 "/>
</g>
</svg>
